
        <svg xmlns="http://www.w3.org/2000/svg" xmlns:xlink="http://www.w3.org/1999/xlink" version="1.1" width="3187.5" height="969.8930501364941" viewBox="0 0 3187.5 969.8930501364941">
			
			<g transform="scale(9.375) translate(10, 10)">
				<defs id="SvgjsDefs1831"/><g id="SvgjsG1832" featureKey="symbolFeature-0" transform="matrix(1.1110775804631003,0,0,1.1110775804631003,-5.519108047276405,-13.777361573899983)" fill="#000"><g xmlns="http://www.w3.org/2000/svg"><path d="M14.1,41.2c1.6,0.4,3.5,0.6,6.1,0.9l11.1,1.2c2.3,0.4,8.5,1.3,11.4,1.8c2.9,0.6,9.8,1.9,13.2,2.7c1.1,0.3,6.1,1.4,7.3,1.7   c2,0.5,4.1,0.6,6.1,0.3c0.2,0,3.4-0.8,3.6-0.9c1.5-0.5,2.9-1.3,3.9-2.4c0.8-0.9,1.4-1.9,1.9-3c0.3-1.3,1.7-6.1,1.8-7   c0.1-1.2,0.5-2.4,1.1-3.5c0.3-0.5,2.2-3.9,2.5-4.5c0.5-0.9,1.1-1.7,1.4-2.1c1.5-1.8,4.9-4.6,1.5-6.8l-9.2-1.4l-16.1-2.4l-11.8-1.7   l-12.6-1.7c-1.7,0-4.4,1.7-6.4,3.4l0,0l-9.4,8l-7.4,6l-2.3,1.8c-2,1.6-2.7,4.3-1.7,6.6C10.8,39.5,11.9,40.6,14.1,41.2z"/><path d="M12,49.1c3.8,2,10.7,1.9,10.7,1.9c26.3,2.5,32.5,6.4,43.5,7.8c8.3,1,12-3.7,13.3-5.8c0.4-0.6,0.6-1.3,0.6-2.1v-6.2   c-4.9,9.2-14.5,6.9-14.5,6.9C45.2,46.7,31.1,45,20.2,44c-8.9-0.8-10.2-3-10.4-3.9l0.5,6.3C10.3,47.6,11,48.6,12,49.1z"/><path d="M9.7,39.8c0,0,0,0.1,0,0.3L9.7,39.8z"/><path d="M88.7,29.2v-4.5c-0.4,0.7,0,0-1.9,2.4c-0.5,0.6-4.6,8.1-4.6,8.1l-1.1,8.1c2.8-4.7,6.1-10.7,7.2-12.7   C88.6,30.2,88.7,29.7,88.7,29.2z"/><path d="M15,61.3c6.6,0.9,16.6-2.4,16.6-2.4l-4.2-1.3l-3.5,0.7c-1.2,0.1-14.3,1.6-13.1-2.8c0.9-3.4,11.4,0,17.6,1.4   c3.8,0.9,7.5,2.8,11,3.7c11.9,3.3,21-1.1,21-1.1s-6.6-2.7-21.9-5.3c-15.3-2.6-24.1-2.6-24.1-2.6s-4.5,0-5.7,2.8S8.3,60.3,15,61.3z"/><path d="M78.8,56.8l-2.3,1.5c0,0,3.8,0.6,3,3.6c-0.7,2.9-7.2,4.3-20.4,0l-3.2,1c0,0,13.4,6,21.9,3.4C86.3,63.7,81.6,57,78.8,56.8z"/><path d="M94.4,44.7c-0.9-1.3-2.5-1.4-2.5-1.4s1.9-0.6,2.3-1.2c0.4-0.7-0.9-2.2-2.3-2.2c-1.3,0-3.6-2-3.2-3.2   c0.4-1.2-2.2,0.5-2.1,1.5c0.2,0.9-1.8,1.7-1.8,1.7v0l-3.3,6.1v4c0,0,3.7,0,4.5,0c0.8,0,1.7-2.2,2.6-2.2c1,0,1.2,1.2,2.3,1.3   c1.1,0,2.8-0.6,3.4,0S95.4,46,94.4,44.7z"/><path d="M87.1,52.9v-2.4c0,0-0.5,0.5-1.7,0.5c-1.2,0-3.7,0-3.7,0s-0.3,3.1-2.1,4.2c0,0,2.1,1.3,3,2.2L87.1,52.9z"/><path d="M23,76.5c0-1.6,1.7-2.4,3.2-2.4c0.5,0,1,0.1,1.4,0.3c0.2,0.1,0.3,0.1,0.4,0.1c1.1,0,1.8-1.9,2.8-1.9c0.2,0,0.3,0.1,0.5,0.2   c1.4,1-2.2,2.2-1.5,3.7c0.6,1.3,2.1,1.7,3.7,1.7c0.3,0,0.6,0,0.9,0c0,0-1.3-1.9-0.4-3c0.9-1.1,2.6-3.5,2.6-3.5s-2.8,0.4-6.6,0.4   c-2.9,0-6.4-0.2-9.5-1c-4.9,3.7-5.5,7.7-5.5,7.7c0-6,3.5-8.3,3.5-8.3h0c-2.1-0.7-4-1.7-5.3-3.2c0,0-0.2,0-0.5,0   c-0.9,0-2.7,0.3-2.9,2.2c-0.2,2.3-1.9,4.3-3.3,4.3c-0.2,0-0.4,0-0.6-0.1c0,0,1.2,1.4,3.1,1.4c0.2,0,0.4,0,0.6-0.1   c0,0-1.2,0.9,0,1.9c1.2,0.9,2.7,6.3,5.5,7.9l1.5,1c0,0,0.3-2.6,1.4-3.6C19,81.2,23,78.6,23,76.5z"/><path d="M11.8,65.8c-1.2-2.3-0.6-4.4-0.6-4.4l-1.5-0.7c-2.1,0.9-4-0.9-4-0.9c-0.6,2,3,3.1,0.9,3.5C4.6,63.8,5,65.7,5,65.7   c0.8-0.3,1-0.2,3.2,0.7C10.4,67.2,11.8,65.8,11.8,65.8z"/><path d="M82.6,65.4c-1.4,2.8-7.9,3.6-7.9,3.6l-11.2,5.7l-12.8-5.3c6.2,5.1,3.5,14.2,3.5,14.2c2.2-4.3,2.5-4.8,2.5-4.8c0,0,0,0,0,0   s2.6,1.7,3.6,3.4c0.3,0.5,0.8,0.6,1.5,0.6c1.8,0,4.3-1.3,3.7-2.2c-0.8-1-0.2-3.4,1.4-3.4c0.2,0,0.4,0,0.7,0.1   c2.1,0.7,0,3.2,5.4,3.2s6.1-5.1,6.6-6c0.5-0.9,2.2-1,3-1.8c0.9-0.9-0.1-2.4,0.7-2.8c0.3-0.2,0.8-0.2,1.2-0.2c0.6,0,1.2,0.1,1.2,0.1   s0,0,0-1.8C85.7,66.3,82.6,65.4,82.6,65.4z"/><path d="M93.4,58.9H83.3c0,0,1.7,2.3,0,5c0,0,2.3-0.4,3.3,2.9c0.1,0.5,0.8,0.4,0.9,0C88.2,63.8,89.8,59.9,93.4,58.9z"/><path d="M93.4,59.8c-3.1,0.7-4.9,7.2-4.9,7.2v1.9c1.6,3.5,4.9,1.7,4.9,1.7s-0.9,0.2-1.7-0.7C90.2,68.2,96.6,59.1,93.4,59.8z"/><path d="M12.2,61.9v1.2c0,1.8,2.6,4.1,4.3,4.9c3.1,1.4,7.2,2.8,14.5,2.8c11.3,0,16.4-4.5,16.4-4.5l-2.5-2.9   C44.9,63.5,29,69.9,12.2,61.9z"/><path d="M47.4,63.3c0,0,3.5,4.8,5.1,5.5c1.6,0.7,10.9,4,10.9,4l9.6-4.7c0,0-10.8,0.3-19.4-4.7C53.6,63.3,49.3,63.8,47.4,63.3z"/><path d="M50.1,70.6l-2.5-1.1l-9.6,2c0,0.1,0,0.2,0,0.3c0,0.3-0.1,0.6-0.3,0.9c-0.2,0.3-1.8,2.4-2.7,3.5c-0.1,0.2,0.1,0.8,0.5,1.3   c0.3,0.4,0.3,0.9,0.1,1.4c-0.2,0.5-0.6,0.8-1.1,0.8c-0.3,0-0.7,0.1-1,0.1c-2.4,0-4.1-0.9-4.9-2.5c-0.2-0.4-0.3-0.9-0.3-1.2   c-0.1,0-0.2,0-0.3,0c-0.4,0-0.7-0.1-1.1-0.3c-0.2-0.1-0.4-0.1-0.7-0.1c-0.7,0-1.8,0.3-1.8,1c0,1.8-1.5,3.4-3.3,4.9   c1.7,0.1,3.7,0.2,5.9,0.1c5.9-0.2,15.8,0.8,26.2,2.5c-0.2-0.3-0.2-0.7-0.1-1.1C53,83,55.3,75.1,50.1,70.6z"/><path d="M80.8,75.3c0,0.1-0.1,0.3-0.1,0.4c-0.6,1.7-2,6.3-7.7,6.3c-3.7,0-4.8-1.1-5.6-2.8c-0.2-0.4-0.2-0.4-0.3-0.5   c-0.1,0-0.1,0-0.2,0c0,0,0,0,0,0c0,0-0.1,0.1-0.2,0.3c-0.1,0.4-0.1,0.7,0,0.7c0.5,0.6,0.5,1.3,0.2,2c-0.7,1.5-3.4,2.4-5,2.4   c-1.7,0-2.4-0.9-2.7-1.4c-0.4-0.7-1.1-1.4-1.9-2c-0.4,0.7-0.9,1.7-1.7,3.3c-0.1,0.2-0.2,0.3-0.3,0.4c5,0.9,10,1.9,14.6,3   c0,0,9.4,1.4,11.7-5.7c0.9-2.7,1.2-5.3,1.2-7.5c-0.4,0.3-0.9,0.4-1.3,0.6C81.4,75.1,81,75.2,80.8,75.3z"/></g></g><g id="SvgjsG1833" featureKey="nameFeature-0" transform="matrix(0.747225723829313,0,0,0.747225723829313,118.24887605728517,22.214118947261845)" fill="#000"><path d="M2.3438 12.050999999999998 l0 27.949 l14.258 0 l0 -4.2383 l-10.02 0 l0 -23.711 l-4.2383 0 z M36.21125 12.050999999999998 l-17.676 27.949 l5.0195 0 l4.1211 -6.5234 l9.4922 0 l0 6.5234 l4.2578 0 l0 -27.949 l-5.2148 0 z M37.16825 18.477 l0 10.762 l-6.8164 0 z M46.40625625 12.050999999999998 l0 27.949 l5.1953 0 l12.383 -21.035 l0 21.035 l5.1953 0 l16.465 -27.949 l-4.9219 0 l-12.48 21.191 l0 -21.191 l-5.1172 0 l-12.48 21.191 l0 -21.191 l-4.2383 0 z M90.508125 12.050999999999998 l-17.676 27.949 l5.0195 0 l4.1211 -6.5234 l9.4922 0 l0 6.5234 l4.2578 0 l0 -27.949 l-5.2148 0 z M91.465125 18.477 l0 10.762 l-6.8164 0 z M107.92973125 40.25391 c-1.849 -0.078125 -3.5547 -0.57291 -5.1172 -1.4844 c-1.7708 -1.0287 -2.9752 -2.4088 -3.6133 -4.1406 l3.9844 -1.4648 c0.32553 0.85938 0.99609 1.556 2.0117 2.0898 c0.89844 0.45572 1.875 0.70963 2.9297 0.76172 c1.6276 0.065098 2.9752 -0.33203 4.043 -1.1914 c0.89844 -0.72916 1.3737 -1.5625 1.4258 -2.5 c0.078125 -1.7838 -1.7904 -3.2096 -5.6055 -4.2773 c-5.9766 -1.6797 -8.8736 -4.5248 -8.6914 -8.5352 c0.11719 -2.8125 1.3216 -4.9154 3.6133 -6.3086 c1.7448 -1.0677 3.8412 -1.543 6.2891 -1.4258 c2.9688 0.13021 5.3516 1.1654 7.1484 3.1055 l-3.1055 2.8906 c-1.0156 -1.0938 -2.4283 -1.6797 -4.2383 -1.7578 c-1.276 -0.05209 -2.3633 0.11066 -3.2617 0.48826 c-1.4063 0.59896 -2.142 1.6667 -2.207 3.2031 c-0.078125 1.7578 1.7904 3.1705 5.6055 4.2383 c3.4375 0.96354 5.8725 2.3828 7.3047 4.2578 c0.98959 1.3021 1.4518 2.7408 1.3867 4.3164 c-0.10416 2.2135 -1.1068 4.0885 -3.0078 5.625 c-1.7708 1.4193 -3.8932 2.1289 -6.3672 2.1289 c-0.18229 0 -0.35807 -0.0065041 -0.52734 -0.019531 z M136.8551875 12.050999999999998 l0 11.836 l-11.367 0 l0 -11.797 l-4.2383 0 l0 27.91 l4.2383 0 l0 -11.875 l11.367 0 l0 11.875 l4.2383 0 l0 -27.949 l-4.2383 0 z M171.113 12.050999999999998 l0 11.836 l-11.367 0 l0 -11.797 l-4.2383 0 l0 27.91 l4.2383 0 l0 -11.875 l11.367 0 l0 11.875 l4.2383 0 l0 -27.949 l-4.2383 0 z M185.5078375 18.945 c-1.9531 1.9531 -2.9297 4.31 -2.9297 7.0703 s0.97656 5.1172 2.9297 7.0703 s4.31 2.9297 7.0703 2.9297 s5.1172 -0.97656 7.0703 -2.9297 s2.9297 -4.31 2.9297 -7.0703 s-0.97656 -5.1172 -2.9297 -7.0703 s-4.31 -2.9297 -7.0703 -2.9297 s-5.1172 0.97656 -7.0703 2.9297 z M182.5000375 36.0937 c-2.7865 -2.7865 -4.1797 -6.1459 -4.1797 -10.078 s1.3932 -7.2916 4.1797 -10.078 s6.1459 -4.1797 10.078 -4.1797 s7.2916 1.3932 10.078 4.1797 s4.1797 6.1459 4.1797 10.078 s-1.3932 7.2916 -4.1797 10.078 s-6.1459 4.1797 -10.078 4.1797 s-7.2916 -1.3932 -10.078 -4.1797 z M213.2422375 37.3437 c-1.9401 -1.9401 -2.9102 -4.2838 -2.9102 -7.0313 l0 -18.281 l4.2578 0 l0 18.281 c0 1.5755 0.55338 2.9166 1.6602 4.0234 c1.1198 1.1198 2.4609 1.6797 4.0234 1.6797 c1.5755 0 2.9166 -0.5599 4.0234 -1.6797 c1.1198 -1.1068 1.6797 -2.4479 1.6797 -4.0234 l0 -18.281 l4.2578 0 l0 18.281 c0 2.7475 -0.97656 5.0912 -2.9297 7.0313 c-1.9401 1.9401 -4.2838 2.9102 -7.0313 2.9102 c-2.7344 0 -5.0781 -0.97006 -7.0313 -2.9102 z M242.46098125 40.25391 c-1.849 -0.078125 -3.5547 -0.57291 -5.1172 -1.4844 c-1.7708 -1.0287 -2.9752 -2.4088 -3.6133 -4.1406 l3.9844 -1.4648 c0.32553 0.85938 0.99609 1.556 2.0117 2.0898 c0.89844 0.45572 1.875 0.70963 2.9297 0.76172 c1.6276 0.065098 2.9752 -0.33203 4.043 -1.1914 c0.89844 -0.72916 1.3737 -1.5625 1.4258 -2.5 c0.078125 -1.7838 -1.7904 -3.2096 -5.6055 -4.2773 c-5.9766 -1.6797 -8.8736 -4.5248 -8.6914 -8.5352 c0.11719 -2.8125 1.3216 -4.9154 3.6133 -6.3086 c1.7448 -1.0677 3.8412 -1.543 6.2891 -1.4258 c2.9688 0.13021 5.3516 1.1654 7.1484 3.1055 l-3.1055 2.8906 c-1.0156 -1.0938 -2.4283 -1.6797 -4.2383 -1.7578 c-1.276 -0.05209 -2.3633 0.11066 -3.2617 0.48826 c-1.4063 0.59896 -2.142 1.6667 -2.207 3.2031 c-0.078125 1.7578 1.7904 3.1705 5.6055 4.2383 c3.4375 0.96354 5.8725 2.3828 7.3047 4.2578 c0.98959 1.3021 1.4518 2.7408 1.3867 4.3164 c-0.10416 2.2135 -1.1068 4.0885 -3.0078 5.625 c-1.7708 1.4193 -3.8932 2.1289 -6.3672 2.1289 c-0.18229 0 -0.35807 -0.0065041 -0.52734 -0.019531 z M255.7422375 12.050999999999998 l0 27.949 l14.258 0 l0 -4.2383 l-10.02 0 l0 -7.6563 l7.7344 0 l0 -4.2383 l-7.7344 0 l0 -7.5781 l10.02 0 l0 -4.2383 l-14.258 0 z"/></g>
			</g>
		</svg>
	